# xmcd CD database file
#
# Track frame offsets:
#	150
#	30051
#	52838
#	62325
#	101686
#	116001
#	132743
#	169657
#	204103
#	224933
#
# Disc length: 3337 seconds
#
# Revision: 0
# Processed by: cddbd v1.5.2PL0 Copyright (c) Steve Scherf et al.
# Submitted via: CDex 1.51
#
DISCID=870d070a
DTITLE=Paul Bley - Solo In Mondsee
DYEAR=2007
DGENRE=Jazz
TTITLE0=Mondsee Variations I
TTITLE1=Mondsee Variations II
TTITLE2=Mondsee Variations III
TTITLE3=Mondsee Variations VI
TTITLE4=Mondsee Variations V
TTITLE5=Mondsee Variations VI
TTITLE6=Mondsee Variations VII
TTITLE7=Mondsee Variations VIII
TTITLE8=Mondsee Variations IX
TTITLE9=Mondsee Variations X
EXTD=YEAR: 2007
EXTT0=
EXTT1=
EXTT2=
EXTT3=
EXTT4=
EXTT5=
EXTT6=
EXTT7=
EXTT8=
EXTT9=
PLAYORDER=
